Coordinates
version=1
nRows=14
nColumns=42
inDegrees=yes

Units are S.I. units (second, meters, Newtons, ...)
If the header above contains a line with 'inDegrees', this indicates whether rotational values are in degrees (yes) or radians (no).

endheader
time	pelvis_tilt	pelvis_list	pelvis_rotation	pelvis_tx	pelvis_ty	pelvis_tz	hip_flexion_r	hip_adduction_r	hip_rotation_r	knee_angle_r	knee_adduction_r	knee_angle_r_beta	ankle_angle_r	subtalar_angle_r	mtp_angle_r	hip_flexion_l	hip_adduction_l	hip_rotation_l	knee_angle_l	knee_adduction_l	knee_angle_l_beta	ankle_angle_l	subtalar_angle_l	mtp_angle_l	lumbar_extension	lumbar_bending	lumbar_rotation	arm_flex_r	arm_add_r	arm_rot_r	elbow_flex_r	pro_sup_r	wrist_flex_r	wrist_dev_r	arm_flex_l	arm_add_l	arm_rot_l	elbow_flex_l	pro_sup_l	wrist_flex_l	wrist_dev_l
      2.94000000	     -0.93031582	     -2.08887877	     -2.44954341	      1.12974759	      0.88115646	     -0.14301144	    -10.16123212	     -2.09388494	     -3.58188974	      6.40075670	     12.35667147	      0.11171428	     16.94737252	      4.34276902	     -7.50029757	     23.33666156	    -12.70340615	     -6.13005463	     16.09613819	     16.22042734	      0.28093061	      3.84643626	     -4.56395085	     -7.50029757	    -14.09493764	      5.16971384	      3.18795583	     -7.77879265	    -13.88140221	     -4.32128729	     18.06245067	     90.00000001	      0.00000000	      0.00000000	    -13.97344967	     -7.90799377	      9.35509021	     22.69932422	     90.00000001	      0.00000000	      0.00000000
      2.95000000	     -1.24561676	     -2.41547139	     -2.58130352	      1.13977241	      0.87881247	     -0.14314204	    -10.44435385	     -1.71300642	     -3.62398699	      6.62667034	     12.24716231	      0.11565722	     17.32011068	      4.34576096	     -7.50029238	     23.86504829	    -12.91956103	     -7.04558362	     13.81258411	     15.78076058	      0.24107507	      3.64378056	     -3.46654438	     -7.50029238	    -13.78214980	      5.37178597	      3.30305163	     -7.86107927	    -13.93631477	     -4.26873885	     18.03734457	     90.00000001	      0.00000000	      0.00000000	    -14.13221471	     -7.77852808	      9.38110590	     22.81863787	     90.00000001	      0.00000000	      0.00000000
      2.96000000	     -1.22656493	     -2.57070531	     -2.84345223	      1.15006871	      0.87695956	     -0.14349631	    -11.08508431	     -1.70623933	     -3.60167449	      6.91124318	     12.37271054	      0.12062395	     17.67927139	      4.37218456	     -7.50028566	     23.74775397	    -12.92777815	     -8.00995323	     11.28489958	     15.38650044	      0.19695865	      3.81417170	     -2.35735461	     -7.50028566	    -13.85606652	      5.37157711	      3.52301347	     -7.87512846	    -14.00769878	     -4.20951870	     17.97249223	     90.00000001	      0.00000000	      0.00000000	    -14.21792488	     -7.63217886	      9.42815227	     22.92223545	     90.00000001	      0.00000000	      0.00000000
      2.97000000	     -1.00892625	     -2.50105599	     -3.08257835	      1.16088796	      0.87533668	     -0.14394955	    -12.03730768	     -1.98851645	     -3.70261660	      7.06151572	     12.50254669	      0.12324670	     17.96862766	      4.59614591	     -7.50027363	     23.35392298	    -12.62036497	     -9.21319115	      9.02292839	     14.88652806	      0.15747981	      3.95158095	     -1.52556877	     -7.50027363	    -14.08774427	      5.08683204	      3.68267885	     -7.94709092	    -14.02881559	     -4.17000137	     17.98859753	     90.00000001	      0.00000000	      0.00000000	    -14.35209462	     -7.57798358	      9.49394989	     23.09335842	     90.00000001	      0.00000000	      0.00000000
      2.98000000	     -1.23760544	     -2.76785235	     -3.30007100	      1.17139528	      0.87314739	     -0.14419610	    -12.42735347	     -1.77248709	     -3.62297566	      7.32965261	     12.45144000	      0.12792657	     18.22562342	      4.68744156	     -7.50026888	     23.70446329	    -12.79944918	    -10.05650101	      7.40892272	     14.62733176	      0.12931010	      4.21310984	     -0.82050130	     -7.50026888	    -13.86209238	      5.18110179	      3.87629534	     -8.01793527	    -14.04528724	     -4.13581023	     17.93811328	     90.00000001	      0.00000000	      0.00000000	    -14.50839936	     -7.48974653	      9.52809708	     23.28268809	     90.00000001	      0.00000000	      0.00000000
      2.99000000	     -1.10914785	     -2.76117704	     -3.58315287	      1.18237649	      0.87144731	     -0.14468988	    -13.23317696	     -2.02361333	     -3.62582609	      7.60717497	     12.55940995	      0.13277025	     18.47285681	      4.95742093	     -7.50025973	     23.52734021	    -12.62324620	    -11.14970701	      6.00874103	     14.29403579	      0.10487231	      4.58427620	     -0.17142572	     -7.50025973	    -14.00071480	      4.94849591	      4.09126334	     -8.10836591	    -14.05749855	     -4.11294837	     17.97007307	     90.00000001	      0.00000000	      0.00000000	    -14.63083980	     -7.43994237	      9.61927253	     23.46125568	     90.00000001	      0.00000000	      0.00000000
      3.00000000	     -1.27564003	     -2.99936667	     -3.55715155	      1.19315532	      0.86935327	     -0.14539598	    -13.75412335	     -1.88739551	     -3.66574059	      7.83873805	     12.59942604	      0.13681179	     18.50598714	      4.98959313	     -7.50025823	     24.13951314	    -12.68866615	    -11.76549466	      5.64506861	     14.08757008	      0.09852503	      4.77981132	     -0.18687764	     -7.50025823	    -13.82603113	      5.04706254	      4.05451281	     -8.23246153	    -14.04921287	     -4.11223000	     18.00454205	     90.00000001	      0.00000000	      0.00000000	    -14.73108595	     -7.38900129	      9.62679119	     23.58353573	     90.00000001	      0.00000000	      0.00000000
      3.01000000	     -1.23937802	     -2.85843757	     -4.11678807	      1.20453326	      0.86774231	     -0.14576827	    -14.38214708	     -2.37887234	     -3.22058200	      8.19469678	     12.66679482	      0.14302444	     18.76802788	      5.36102274	     -7.50025104	     23.90215539	    -12.50398890	    -12.61726064	      4.76857181	     13.91163365	      0.08322728	      5.29859716	      0.22145848	     -7.50025104	    -13.83181598	      4.61229927	      4.50220603	     -8.32006754	    -14.04461884	     -4.10010799	     17.94095331	     90.00000001	      0.00000000	      0.00000000	    -14.92693864	     -7.36877342	      9.75105174	     23.92926840	     90.00000001	      0.00000000	      0.00000000
      3.02000000	     -1.35784413	     -2.97302198	     -4.18173640	      1.21573873	      0.86593829	     -0.14649936	    -14.90028398	     -2.42305958	     -3.06999854	      8.53275341	     12.64729799	      0.14892464	     18.72090241	      5.41933001	     -7.50024981	     24.32453672	    -12.48999167	    -12.68477421	      4.88793451	     13.83950195	      0.08531055	      5.33423046	      0.23510282	     -7.50024981	    -13.67792530	      4.53771793	      4.53266390	     -8.46098049	    -14.00285394	     -4.09869522	     17.99842360	     90.00000001	      0.00000000	      0.00000000	    -15.02462592	     -7.33001048	      9.74921695	     24.02337604	     90.00000001	      0.00000000	      0.00000000
      3.03000000	     -1.47416214	     -3.03726999	     -4.32958366	      1.22726426	      0.86430328	     -0.14731213	    -15.40809924	     -2.56529749	     -2.84201232	      8.89442513	     12.58919399	      0.15523700	     18.65750101	      5.48996442	     -7.50024864	     24.61732116	    -12.44611364	    -12.59080267	      5.13038946	     13.79521500	      0.08954219	      5.33454798	      0.24977514	     -7.50024864	    -13.48054690	      4.41218596	      4.59714367	     -8.60937785	    -13.96846264	     -4.09908120	     18.04432776	     90.00000001	      0.00000000	      0.00000000	    -15.15170125	     -7.28470927	      9.74929182	     24.12435457	     90.00000001	      0.00000000	      0.00000000
      3.04000000	     -1.33264084	     -2.36373114	     -4.84368181	      1.23895726	      0.86321144	     -0.14832160	    -15.99050618	     -3.89414214	     -2.35438495	      9.50571162	     13.02622067	      0.16590597	     18.68979465	      6.06315577	     -7.50021566	     24.41222608	    -11.57844860	    -12.63633838	      5.50638342	     13.49925494	      0.09610452	      4.72251274	     -1.36258835	     -7.50021566	    -13.56604809	      3.39961976	      4.94920453	     -8.67838696	    -13.84625794	     -4.25527634	     17.89380628	     90.00000001	      0.00000000	      0.00000000	    -15.30329443	     -7.43322964	     10.05434948	     24.62331245	     90.00000001	      0.00000000	      0.00000000
      3.05000000	     -1.36028340	     -2.12368344	     -5.01966646	      1.25064076	      0.86204811	     -0.14940693	    -16.44159316	     -4.49211556	     -1.93591811	     10.08238929	     13.15403601	      0.17597089	     18.38166122	      6.07886247	     -7.50021129	     24.70376095	    -11.22551472	    -12.26878159	      6.59874187	     13.45750502	      0.11516977	      4.00522970	     -1.73651095	     -7.50021129	    -13.46572691	      2.92041198	      5.00657995	     -8.79233286	    -13.76484054	     -4.26482369	     17.89034172	     90.00000001	      0.00000000	      0.00000000	    -15.41918907	     -7.48215118	     10.09370560	     24.85610694	     90.00000001	      0.00000000	      0.00000000
      3.06000000	     -1.37370062	     -1.92053694	     -5.23514393	      1.26247087	      0.86114616	     -0.15030430	    -16.83921475	     -4.97318667	     -1.33235659	     10.73743872	     13.11591715	      0.18740366	     18.08330999	      6.17663978	     -7.50020943	     24.80866615	    -11.00373780	    -11.34551494	      7.55863570	     13.64105824	      0.13192308	      3.47065442	     -1.62593761	     -7.50020943	    -13.37951051	      2.45584071	      5.16784578	     -8.95699852	    -13.64555160	     -4.26038149	     17.94989081	     90.00000001	      0.00000000	      0.00000000	    -15.45169037	     -7.55296260	     10.08159685	     24.99510740	     90.00000001	      0.00000000	      0.00000000
      3.07000000	     -1.31061898	     -1.53969447	     -5.26612376	      1.27430372	      0.86053590	     -0.15198860	    -17.23259075	     -5.85228281	     -1.15586784	     11.64308582	     13.52662297	      0.20321018	     17.24176749	      5.95252506	     -7.50020560	     25.15968317	    -10.43167608	    -10.88593423	      9.33896553	     13.56535765	      0.16299570	      1.74033197	     -2.40993638	     -7.50020560	    -13.37293237	      1.87357796	      5.03318404	     -8.99417601	    -13.57925604	     -4.32564957	     17.86792705	     90.00000001	      0.00000000	      0.00000000	    -15.53463969	     -7.61037594	     10.20550758	     25.21692388	     90.00000001	      0.00000000	      0.00000000
